<svg width="51" height="51" viewBox="0 0 51 51" fill="none" xmlns="http://www.w3.org/2000/svg">
<path d="M29.7426 18.4807L26.5606 21.6627C25.9748 22.2485 25.0251 22.2485 24.4393 21.6627L21.2573 18.4807C20.6715 17.8949 20.6715 16.9452 21.2573 16.3594L16.4844 21.1324C17.0701 20.5466 18.0199 20.5466 18.6057 21.1324L21.7877 24.3143C22.3734 24.9001 22.3734 25.8499 21.7877 26.4357L18.6057 29.6176C18.0199 30.2034 17.0701 30.2034 16.4844 29.6176L21.2573 34.3906C20.6715 33.8048 20.6715 32.8551 21.2573 32.2693L24.4393 29.0873C25.0251 28.5015 25.9748 28.5015 26.5606 29.0873L29.7426 32.2693C30.3284 32.8551 30.3284 33.8048 29.7426 34.3906L34.5156 29.6176C33.9298 30.2034 32.98 30.2034 32.3943 29.6176L29.2123 26.4357C28.6265 25.8499 28.6265 24.9001 29.2123 24.3143L32.3943 21.1324C32.98 20.5466 33.9298 20.5466 34.5156 21.1324L29.7426 16.3594C30.3284 16.9452 30.3284 17.8949 29.7426 18.4807Z" fill="#22B24C"/>
</svg>
